<svg width="58" height="58" viewBox="0 0 58 58" fill="none" xmlns="http://www.w3.org/2000/svg">
<g id="ant-design:facebook-outlined">
<path id="Vector" d="M49.4844 6.73438H8.51562C7.53037 6.73438 6.73438 7.53037 6.73438 8.51562V49.4844C6.73438 50.4696 7.53037 51.2656 8.51562 51.2656H49.4844C50.4696 51.2656 51.2656 50.4696 51.2656 49.4844V8.51562C51.2656 7.53037 50.4696 6.73438 49.4844 6.73438ZM47.7031 47.7031H37.4554V34.0209H43.2444L44.1128 27.3022H37.4554V23.0105C37.4554 21.0623 37.9953 19.7375 40.7841 19.7375H44.341V13.7258C43.7231 13.6423 41.6135 13.4586 39.1531 13.4586C34.0209 13.4586 30.5085 16.5925 30.5085 22.3426V27.2967H24.7083V34.0153H30.5141V47.7031H10.2969V10.2969H47.7031V47.7031Z" fill="white"/>
</g>
</svg>
