<svg width="58" height="58" viewBox="0 0 58 58" fill="none" xmlns="http://www.w3.org/2000/svg">
<g id="fa6-brands:git" clip-path="url(#clip0_99_498)">
<path id="Vector" d="M24.5792 18.1333H15.752C11.2988 16.9655 1.22475 17.2694 1.22475 26.4596C1.22475 29.8094 2.89467 32.1629 5.12123 33.2506C2.32689 35.8111 1.00209 37.019 1.00209 38.729C1.00209 39.9537 1.49973 41.0825 2.99375 41.7138C1.4051 43.2067 0.5 44.291 0.5 46.3283C0.5 49.903 3.62275 51.986 11.8143 51.986C19.6907 51.986 24.2596 49.0447 24.2596 43.839C24.2596 37.3085 19.2321 37.549 7.37896 36.8253L8.8741 34.4262C11.91 35.2701 22.0887 35.5395 22.0887 26.8681C22.0887 24.7863 21.2282 23.3379 20.4188 22.2959L24.5836 21.9797L24.5792 18.1333ZM17.5187 45.0636C17.5187 48.6328 5.84152 48.6372 5.84152 45.3341C5.84152 44.4279 6.42822 43.6642 7.01826 42.9361C15.6696 43.5262 17.5187 43.3113 17.5187 45.0636ZM11.8621 30.0811C5.98402 30.0811 6.24453 22.159 11.9957 22.159C17.5109 22.159 17.6534 30.0811 11.8621 30.0811ZM26.7022 41.2707V37.697C29.6802 37.2896 29.7348 37.4744 29.7348 36.4724V23.1676C29.7348 22.2213 29.5065 22.346 26.7022 21.3574L27.1998 17.6925H36.5703V36.4746C36.5703 37.1994 36.6148 37.2896 37.2951 37.3809L39.6029 37.697V41.2707H26.7022ZM32.5413 14.0721C29.9619 14.0721 28.4679 12.577 28.4679 9.99637C28.4679 7.41578 29.9619 6.01416 32.5413 6.01416C35.1665 6.01416 36.6605 7.41912 36.6605 9.99637C36.6605 12.5736 35.1665 14.0721 32.5413 14.0721ZM57.5 39.5161C55.5529 40.4658 52.7018 41.3263 50.1212 41.3263C44.7351 41.3263 42.6989 39.1554 42.6989 34.0388V22.1812C42.6989 21.5778 42.8158 21.7292 39.1687 21.7292V17.7003C43.152 17.2472 44.7351 15.2511 45.2328 10.3226H49.5334C49.5334 17.6513 49.3842 17.2037 49.8963 17.2037H56.2754V21.7292H49.5334V32.5448C49.5334 33.3152 48.9856 38.2681 56.2765 35.5328L57.5 39.5161Z" fill="white"/>
</g>
<defs>
<clipPath id="clip0_99_498">
<rect width="57" height="57" fill="white" transform="translate(0.5 0.5)"/>
</clipPath>
</defs>
</svg>
