<svg width="58" height="58" viewBox="0 0 58 58" fill="none" xmlns="http://www.w3.org/2000/svg">
<g id="basil:instagram-outline">
<path id="Vector" d="M38.5 17.125C38.5 16.4951 38.7502 15.891 39.1956 15.4456C39.641 15.0002 40.2451 14.75 40.875 14.75C41.5049 14.75 42.109 15.0002 42.5544 15.4456C42.9998 15.891 43.25 16.4951 43.25 17.125C43.25 17.7549 42.9998 18.359 42.5544 18.8044C42.109 19.2498 41.5049 19.5 40.875 19.5C40.2451 19.5 39.641 19.2498 39.1956 18.8044C38.7502 18.359 38.5 17.7549 38.5 17.125Z" fill="white"/>
<path id="Vector_2" fill-rule="evenodd" clip-rule="evenodd" d="M29 17.7188C26.008 17.7188 23.1386 18.9073 21.023 21.023C18.9073 23.1386 17.7188 26.008 17.7188 29C17.7188 31.992 18.9073 34.8614 21.023 36.977C23.1386 39.0927 26.008 40.2812 29 40.2812C31.992 40.2812 34.8614 39.0927 36.977 36.977C39.0927 34.8614 40.2812 31.992 40.2812 29C40.2812 26.008 39.0927 23.1386 36.977 21.023C34.8614 18.9073 31.992 17.7188 29 17.7188ZM21.2812 29C21.2812 26.9529 22.0945 24.9896 23.542 23.542C24.9896 22.0945 26.9529 21.2812 29 21.2812C31.0471 21.2812 33.0104 22.0945 34.458 23.542C35.9055 24.9896 36.7188 26.9529 36.7188 29C36.7188 31.0471 35.9055 33.0104 34.458 34.458C33.0104 35.9055 31.0471 36.7188 29 36.7188C26.9529 36.7188 24.9896 35.9055 23.542 34.458C22.0945 33.0104 21.2812 31.0471 21.2812 29Z" fill="white"/>
<path id="Vector_3" fill-rule="evenodd" clip-rule="evenodd" d="M41.4876 7.22839C33.1878 6.30831 24.8118 6.30831 16.5121 7.22839C11.7336 7.76277 7.8742 11.5271 7.3137 16.3294C6.32903 24.7478 6.32903 33.2523 7.3137 41.6706C7.8742 46.4729 11.7312 50.2373 16.5121 50.7716C24.8119 51.6908 33.1878 51.6908 41.4876 50.7716C46.2661 50.2373 50.1255 46.4729 50.686 41.6706C51.6708 33.2523 51.6708 24.7478 50.686 16.3294C50.1255 11.5271 46.2685 7.76277 41.4876 7.22839ZM16.9063 10.7671C24.944 9.87622 33.0556 9.87622 41.0933 10.7671C44.2521 11.1234 46.7815 13.6148 47.1496 16.745C48.1018 24.8873 48.1018 33.1128 47.1496 41.255C46.9592 42.787 46.2579 44.21 45.159 45.2943C44.0601 46.3786 42.6277 47.0607 41.0933 47.2305C33.0556 48.1215 24.944 48.1215 16.9063 47.2305C15.3719 47.0607 13.9396 46.3786 12.8407 45.2943C11.7418 44.21 11.0405 42.787 10.8501 41.255C9.89782 33.1128 9.89782 24.8873 10.8501 16.745C11.0405 15.213 11.7418 13.79 12.8407 12.7057C13.9396 11.6215 15.3719 10.937 16.9063 10.7671Z" fill="white"/>
</g>
</svg>
